<?xml version="1.0" encoding="utf-8"?>
<svg id="Layer_1" data-name="Layer 1" viewBox="16.055 116.972 269.266 66.056" xmlns="http://www.w3.org/2000/svg">
  <defs>
    <style>.cls-1{fill:#454b7f;}.cls-2{opacity:0.9;}.cls-3{fill:#3b77a9;}.cls-4{fill:#161e5f;}</style>
  </defs>
  <rect class="cls-1" x="34.17" y="150.59" width="44.73" height="18.64" rx="9.32" transform="translate(-96.52 86.81) rotate(-45)"/>
  <g class="cls-2">
    <rect class="cls-3" x="28.76" y="137.55" width="18.64" height="44.73" rx="9.32" transform="translate(-101.92 73.76) rotate(-45)"/>
  </g>
  <path class="cls-4" d="M54.55,139l-6.46,6.46a1.12,1.12,0,0,1-1.57,0L40.06,139a10.24,10.24,0,0,1,0-14.48h0a10.25,10.25,0,0,1,14.49,0h0A10.24,10.24,0,0,1,54.55,139Z"/>
  <path class="cls-4" d="M110.44,137v4.14h-11v7h8.8v4h-8.8v11H94.25V137Z"/>
  <path class="cls-4" d="M129.85,157.8H119.38l-1.84,5.25H112l9.61-25.8h6l9.58,25.8h-5.51Zm-1.41-4-3.84-11-3.85,11Z"/>
  <path class="cls-4" d="M153.58,163.05l-6.1-10.17h-2.29v10.17H140V137h9.94q4.54,0,6.93,2.22a7.6,7.6,0,0,1,2.39,5.84,7.51,7.51,0,0,1-1.65,5,8.08,8.08,0,0,1-4.75,2.66l6.51,10.43Zm-8.39-13.75h4.29q4.47,0,4.47-4a3.91,3.91,0,0,0-1.09-2.94,4.72,4.72,0,0,0-3.38-1.05h-4.29Z"/>
  <path class="cls-4" d="M190.88,137.25v25.8h-5.17v-18l-6.62,18h-4.51L168,145.12v17.93h-5.21v-25.8h6.32l7.84,19.41,7.69-19.41Z"/>
  <path class="cls-4" d="M229.85,137l-6.39,26.1H217l-4.88-18.93-4.91,18.93h-6.4l-6.4-26.1h5.66l4,20.22L209.26,137H215l5.21,20.22,4-20.22Z"/>
  <path class="cls-4" d="M249.3,157.8H238.83L237,163.05h-5.51l9.61-25.8H247l9.58,25.8h-5.51Zm-1.41-4-3.84-11-3.85,11Z"/>
  <path class="cls-4" d="M280.46,137l-8.83,17v9.13h-5.25v-9.13l-8.88-17h6L269,148.37,274.58,137Z"/>
</svg>